<mxfile host="app.diagrams.net" modified="2024-03-17T08:32:16.884Z" agent="Mozilla/5.0 (Windows NT 10.0; Win64; x64) AppleWebKit/537.36 (KHTML, like Gecko) Chrome/122.0.0.0 Safari/537.36" etag="dcE30XxHzNV5UQC59sMZ" version="24.0.7" type="github">
  <diagram name="Página-1" id="bAW6rvpa4SddosETt1AI">
    <mxGraphModel dx="2440" dy="653" grid="1" gridSize="10" guides="1" tooltips="1" connect="1" arrows="1" fold="1" page="1" pageScale="1" pageWidth="827" pageHeight="1169" math="0" shadow="0">
      <root>
        <mxCell id="0" />
        <mxCell id="1" parent="0" />
        <mxCell id="c_xKtwcv7U-fZD7rM81X-2" value="Administrador" style="shape=umlActor;verticalLabelPosition=bottom;verticalAlign=top;html=1;outlineConnect=0;" parent="1" vertex="1">
          <mxGeometry x="30" y="190" width="30" height="60" as="geometry" />
        </mxCell>
        <mxCell id="c_xKtwcv7U-fZD7rM81X-14" value="&lt;div&gt;&amp;lt;&amp;lt;system&amp;gt;&amp;gt;&lt;/div&gt;Sistema&amp;nbsp; De Venda" style="shape=umlActor;verticalLabelPosition=bottom;verticalAlign=top;html=1;outlineConnect=0;" parent="1" vertex="1">
          <mxGeometry x="30" y="560" width="30" height="60" as="geometry" />
        </mxCell>
        <mxCell id="c_xKtwcv7U-fZD7rM81X-24" value="" style="endArrow=none;html=1;rounded=0;" parent="1" source="c_xKtwcv7U-fZD7rM81X-4" target="GG5-wgB0X3b8xxEFFTJD-13" edge="1">
          <mxGeometry width="50" height="50" relative="1" as="geometry">
            <mxPoint x="390" y="430" as="sourcePoint" />
            <mxPoint x="730" y="180" as="targetPoint" />
          </mxGeometry>
        </mxCell>
        <mxCell id="c_xKtwcv7U-fZD7rM81X-25" value="" style="endArrow=none;html=1;rounded=0;" parent="1" source="c_xKtwcv7U-fZD7rM81X-14" target="c_xKtwcv7U-fZD7rM81X-5" edge="1">
          <mxGeometry width="50" height="50" relative="1" as="geometry">
            <mxPoint x="470" y="280" as="sourcePoint" />
            <mxPoint x="780" y="360" as="targetPoint" />
          </mxGeometry>
        </mxCell>
        <mxCell id="c_xKtwcv7U-fZD7rM81X-43" value="Sistema de Estoque" style="swimlane;" parent="1" vertex="1">
          <mxGeometry x="98.5" y="30" width="630" height="650" as="geometry">
            <mxRectangle x="130" y="30" width="150" height="30" as="alternateBounds" />
          </mxGeometry>
        </mxCell>
        <mxCell id="c_xKtwcv7U-fZD7rM81X-7" value="Alerta de Baixa rotatividade" style="ellipse;whiteSpace=wrap;html=1;" parent="c_xKtwcv7U-fZD7rM81X-43" vertex="1">
          <mxGeometry x="451.5" y="410" width="120" height="80" as="geometry" />
        </mxCell>
        <mxCell id="c_xKtwcv7U-fZD7rM81X-6" value="Alerta De Estoque Baixo" style="ellipse;whiteSpace=wrap;html=1;" parent="c_xKtwcv7U-fZD7rM81X-43" vertex="1">
          <mxGeometry x="461.5" y="270" width="120" height="80" as="geometry" />
        </mxCell>
        <mxCell id="GG5-wgB0X3b8xxEFFTJD-3" value="Gerenciar Relatórios" style="ellipse;whiteSpace=wrap;html=1;" parent="c_xKtwcv7U-fZD7rM81X-43" vertex="1">
          <mxGeometry x="111.5" y="250" width="120" height="80" as="geometry" />
        </mxCell>
        <mxCell id="c_xKtwcv7U-fZD7rM81X-5" value="Movimentação De Estoque" style="ellipse;whiteSpace=wrap;html=1;" parent="c_xKtwcv7U-fZD7rM81X-43" vertex="1">
          <mxGeometry x="231.5" y="520" width="120" height="80" as="geometry" />
        </mxCell>
        <mxCell id="c_xKtwcv7U-fZD7rM81X-8" value="&amp;lt;&amp;lt;extend&amp;gt;&amp;gt;" style="html=1;verticalAlign=bottom;endArrow=open;dashed=1;endSize=8;curved=0;rounded=0;" parent="c_xKtwcv7U-fZD7rM81X-43" source="c_xKtwcv7U-fZD7rM81X-7" target="c_xKtwcv7U-fZD7rM81X-5" edge="1">
          <mxGeometry relative="1" as="geometry">
            <mxPoint x="540" y="625" as="sourcePoint" />
            <mxPoint x="460" y="625" as="targetPoint" />
          </mxGeometry>
        </mxCell>
        <mxCell id="GG5-wgB0X3b8xxEFFTJD-5" value="&amp;lt;&amp;lt;include&amp;gt;&amp;gt;" style="html=1;verticalAlign=bottom;endArrow=open;dashed=1;endSize=8;curved=0;rounded=0;" parent="c_xKtwcv7U-fZD7rM81X-43" source="GG5-wgB0X3b8xxEFFTJD-3" target="c_xKtwcv7U-fZD7rM81X-5" edge="1">
          <mxGeometry relative="1" as="geometry">
            <mxPoint x="470" y="375" as="sourcePoint" />
            <mxPoint x="400" y="375" as="targetPoint" />
          </mxGeometry>
        </mxCell>
        <mxCell id="GG5-wgB0X3b8xxEFFTJD-16" value="Gerenciar Funcionário" style="ellipse;whiteSpace=wrap;html=1;" parent="c_xKtwcv7U-fZD7rM81X-43" vertex="1">
          <mxGeometry x="111.5" y="50" width="120" height="80" as="geometry" />
        </mxCell>
        <mxCell id="c_xKtwcv7U-fZD7rM81X-4" value="Gerenciar livros" style="ellipse;whiteSpace=wrap;html=1;" parent="c_xKtwcv7U-fZD7rM81X-43" vertex="1">
          <mxGeometry x="375" y="100" width="120" height="80" as="geometry" />
        </mxCell>
        <mxCell id="GG5-wgB0X3b8xxEFFTJD-4" value="&amp;lt;&amp;lt;include&amp;gt;&amp;gt;" style="html=1;verticalAlign=bottom;endArrow=open;dashed=1;endSize=8;curved=0;rounded=0;" parent="c_xKtwcv7U-fZD7rM81X-43" source="GG5-wgB0X3b8xxEFFTJD-3" target="c_xKtwcv7U-fZD7rM81X-4" edge="1">
          <mxGeometry relative="1" as="geometry">
            <mxPoint x="390" y="265" as="sourcePoint" />
            <mxPoint x="390" y="335" as="targetPoint" />
          </mxGeometry>
        </mxCell>
        <mxCell id="c_xKtwcv7U-fZD7rM81X-13" value="&amp;lt;&amp;lt;include&amp;gt;&amp;gt;" style="html=1;verticalAlign=bottom;endArrow=open;dashed=1;endSize=8;curved=0;rounded=0;" parent="c_xKtwcv7U-fZD7rM81X-43" source="c_xKtwcv7U-fZD7rM81X-5" target="c_xKtwcv7U-fZD7rM81X-4" edge="1">
          <mxGeometry relative="1" as="geometry">
            <mxPoint x="330" y="635" as="sourcePoint" />
            <mxPoint x="250" y="635" as="targetPoint" />
          </mxGeometry>
        </mxCell>
        <mxCell id="c_xKtwcv7U-fZD7rM81X-12" value="&amp;lt;&amp;lt;extend&amp;gt;&amp;gt;" style="endArrow=open;endSize=12;dashed=1;html=1;rounded=0;" parent="c_xKtwcv7U-fZD7rM81X-43" source="c_xKtwcv7U-fZD7rM81X-6" target="c_xKtwcv7U-fZD7rM81X-4" edge="1">
          <mxGeometry x="-0.1774" y="-11" width="160" relative="1" as="geometry">
            <mxPoint x="304" y="675" as="sourcePoint" />
            <mxPoint x="464" y="675" as="targetPoint" />
            <mxPoint x="1" as="offset" />
          </mxGeometry>
        </mxCell>
        <mxCell id="GG5-wgB0X3b8xxEFFTJD-6" value="" style="endArrow=none;html=1;rounded=0;" parent="1" source="GG5-wgB0X3b8xxEFFTJD-3" target="c_xKtwcv7U-fZD7rM81X-2" edge="1">
          <mxGeometry width="50" height="50" relative="1" as="geometry">
            <mxPoint x="465" y="264" as="sourcePoint" />
            <mxPoint x="780" y="174" as="targetPoint" />
          </mxGeometry>
        </mxCell>
        <mxCell id="GG5-wgB0X3b8xxEFFTJD-12" value="&lt;div&gt;&amp;lt;&amp;lt;system&amp;gt;&amp;gt;&lt;/div&gt;&lt;div&gt;Central De Compras&lt;/div&gt;" style="shape=umlActor;verticalLabelPosition=bottom;verticalAlign=top;html=1;outlineConnect=0;" parent="1" vertex="1">
          <mxGeometry x="770" y="560" width="30" height="60" as="geometry" />
        </mxCell>
        <mxCell id="GG5-wgB0X3b8xxEFFTJD-13" value="Estoquista&lt;div&gt;&lt;br&gt;&lt;/div&gt;" style="shape=umlActor;verticalLabelPosition=bottom;verticalAlign=top;html=1;outlineConnect=0;" parent="1" vertex="1">
          <mxGeometry x="770" y="190" width="30" height="60" as="geometry" />
        </mxCell>
        <mxCell id="GG5-wgB0X3b8xxEFFTJD-18" value="" style="endArrow=none;html=1;rounded=0;" parent="1" source="GG5-wgB0X3b8xxEFFTJD-16" target="c_xKtwcv7U-fZD7rM81X-2" edge="1">
          <mxGeometry width="50" height="50" relative="1" as="geometry">
            <mxPoint x="189" y="241" as="sourcePoint" />
            <mxPoint x="80" y="161" as="targetPoint" />
          </mxGeometry>
        </mxCell>
        <mxCell id="iwvIT9xCLrLLC76mdTiF-1" value="" style="endArrow=none;html=1;rounded=0;" parent="1" source="GG5-wgB0X3b8xxEFFTJD-12" target="c_xKtwcv7U-fZD7rM81X-5" edge="1">
          <mxGeometry width="50" height="50" relative="1" as="geometry">
            <mxPoint x="530" y="720" as="sourcePoint" />
            <mxPoint x="366" y="611" as="targetPoint" />
          </mxGeometry>
        </mxCell>
      </root>
    </mxGraphModel>
  </diagram>
</mxfile>
